<svg id="Layer_1" data-name="Layer 1" xmlns="http://www.w3.org/2000/svg" ><defs><style>.cls-1{fill:#010;}</style></defs><title>githubv2</title><path class="cls-1" d="M37.68,12.15a26.18,26.18,0,0,0-8.28,51,1.32,1.32,0,0,0,1.79-1.26V57.44c-7.28,1.58-8.82-3.51-8.82-3.51-1.19-3-2.91-3.83-2.91-3.83-2.38-1.63.18-1.59,0.18-1.59a5.5,5.5,0,0,1,4,2.7c2.33,4,6.13,2.84,7.62,2.17a5.57,5.57,0,0,1,1.66-3.5C27.11,49.22,21,47,21,36.94a10.13,10.13,0,0,1,2.69-7A9.44,9.44,0,0,1,23.95,23s2.2-.7,7.2,2.69a24.76,24.76,0,0,1,13.11,0c5-3.39,7.2-2.69,7.2-2.69a9.41,9.41,0,0,1,.26,6.93,10.11,10.11,0,0,1,2.69,7c0,10.06-6.12,12.27-12,12.92a6.25,6.25,0,0,1,1.78,4.85v7.18A1.31,1.31,0,0,0,46,63.15a26.18,26.18,0,0,0-8.29-51" transform="translate(-11.55 -12.15)"/></svg>