<svg id="Layer_1" data-name="Layer 1" xmlns="http://www.w3.org/2000/svg"><defs><style>.cls-1{fill:#017bb6;}.cls-2{fill:#fff;}</style></defs><title>linkedIn</title><rect class="cls-1" width="75.36" height="75.36"/><path class="cls-2" d="M-69.7,40.84h10.63V75H-69.7V40.84Zm5.32-17A6.16,6.16,0,0,1-58.23,30a6.16,6.16,0,0,1-6.16,6.16A6.16,6.16,0,0,1-70.55,30a6.16,6.16,0,0,1,6.16-6.15" transform="translate(82.6 -11.74)"/><path class="cls-2" d="M-52.41,40.84h10.18V45.5h0.14A11.16,11.16,0,0,1-32,40c10.75,0,12.74,7.07,12.74,16.27V75H-29.9V58.39c0-4-.08-9.06-5.52-9.06s-6.37,4.31-6.37,8.77V75H-52.41V40.84Z" transform="translate(82.6 -11.74)"/></svg>